<mxfile host="Electron" agent="Mozilla/5.0 (Windows NT 10.0; Win64; x64) AppleWebKit/537.36 (KHTML, like Gecko) draw.io/28.1.2 Chrome/138.0.7204.243 Electron/37.4.0 Safari/537.36" version="28.1.2" pages="2">
  <diagram name="Page-1" id="aWlOVev54Y7wxD_GlZZ6">
    <mxGraphModel dx="1737" dy="1043" grid="1" gridSize="10" guides="1" tooltips="1" connect="1" arrows="1" fold="1" page="1" pageScale="1" pageWidth="850" pageHeight="1100" math="0" shadow="0">
      <root>
        <mxCell id="0" />
        <mxCell id="1" parent="0" />
        <mxCell id="DTB9U6Tat9dKRQT2tUvX-7" value="" style="edgeStyle=orthogonalEdgeStyle;rounded=0;orthogonalLoop=1;jettySize=auto;html=1;" edge="1" parent="1">
          <mxGeometry relative="1" as="geometry">
            <mxPoint x="95" y="100" as="sourcePoint" />
            <mxPoint x="95" y="150" as="targetPoint" />
          </mxGeometry>
        </mxCell>
        <mxCell id="DTB9U6Tat9dKRQT2tUvX-4" value="" style="endArrow=classic;html=1;rounded=0;" edge="1" parent="1">
          <mxGeometry width="50" height="50" relative="1" as="geometry">
            <mxPoint x="94.5" y="100" as="sourcePoint" />
            <mxPoint x="95" y="150" as="targetPoint" />
          </mxGeometry>
        </mxCell>
        <mxCell id="DTB9U6Tat9dKRQT2tUvX-8" value="" style="endArrow=classic;html=1;rounded=0;" edge="1" parent="1">
          <mxGeometry width="50" height="50" relative="1" as="geometry">
            <mxPoint x="94.5" y="210" as="sourcePoint" />
            <mxPoint x="95" y="260" as="targetPoint" />
          </mxGeometry>
        </mxCell>
        <mxCell id="DTB9U6Tat9dKRQT2tUvX-11" value="" style="endArrow=classic;html=1;rounded=0;" edge="1" parent="1">
          <mxGeometry width="50" height="50" relative="1" as="geometry">
            <mxPoint x="94.5" y="320" as="sourcePoint" />
            <mxPoint x="95" y="370" as="targetPoint" />
          </mxGeometry>
        </mxCell>
        <mxCell id="DTB9U6Tat9dKRQT2tUvX-15" value="" style="endArrow=classic;html=1;rounded=0;" edge="1" parent="1">
          <mxGeometry width="50" height="50" relative="1" as="geometry">
            <mxPoint x="94.67000000000002" y="430" as="sourcePoint" />
            <mxPoint x="95.17000000000002" y="480" as="targetPoint" />
          </mxGeometry>
        </mxCell>
        <mxCell id="DTB9U6Tat9dKRQT2tUvX-18" value="" style="endArrow=classic;html=1;rounded=0;" edge="1" parent="1">
          <mxGeometry width="50" height="50" relative="1" as="geometry">
            <mxPoint x="94.67000000000002" y="540" as="sourcePoint" />
            <mxPoint x="95.17000000000002" y="590" as="targetPoint" />
          </mxGeometry>
        </mxCell>
        <mxCell id="DTB9U6Tat9dKRQT2tUvX-20" value="" style="endArrow=classic;html=1;rounded=0;" edge="1" parent="1">
          <mxGeometry width="50" height="50" relative="1" as="geometry">
            <mxPoint x="94.67000000000002" y="650" as="sourcePoint" />
            <mxPoint x="95.17000000000002" y="700" as="targetPoint" />
          </mxGeometry>
        </mxCell>
        <mxCell id="DTB9U6Tat9dKRQT2tUvX-25" value="" style="endArrow=classic;html=1;rounded=0;" edge="1" parent="1">
          <mxGeometry width="50" height="50" relative="1" as="geometry">
            <mxPoint x="95" y="760" as="sourcePoint" />
            <mxPoint x="95.5" y="810" as="targetPoint" />
          </mxGeometry>
        </mxCell>
        <mxCell id="DTB9U6Tat9dKRQT2tUvX-27" value="&#xa;&lt;span style=&quot;color: rgb(0, 0, 0); font-family: Helvetica; font-size: 12px; font-style: normal; font-variant-ligatures: normal; font-variant-caps: normal; font-weight: 400; letter-spacing: normal; orphans: 2; text-align: center; text-indent: 0px; text-transform: none; widows: 2; word-spacing: 0px; -webkit-text-stroke-width: 0px; white-space: normal; background-color: rgb(236, 236, 236); text-decoration-thickness: initial; text-decoration-style: initial; text-decoration-color: initial; display: inline !important; float: none;&quot;&gt;fah1= (suhu[0]*9)5+32&lt;/span&gt;&#xa;&#xa;" style="rounded=1;whiteSpace=wrap;html=1;absoluteArcSize=1;arcSize=14;strokeWidth=2;" vertex="1" parent="1">
          <mxGeometry x="30" y="260" width="130" height="60" as="geometry" />
        </mxCell>
        <mxCell id="DTB9U6Tat9dKRQT2tUvX-28" value="Start" style="strokeWidth=2;html=1;shape=mxgraph.flowchart.terminator;whiteSpace=wrap;" vertex="1" parent="1">
          <mxGeometry x="45" y="40" width="100" height="60" as="geometry" />
        </mxCell>
        <mxCell id="DTB9U6Tat9dKRQT2tUvX-29" value="fah2= (suhu[1]*9)5=32" style="rounded=1;whiteSpace=wrap;html=1;absoluteArcSize=1;arcSize=14;strokeWidth=2;" vertex="1" parent="1">
          <mxGeometry x="30" y="370" width="130" height="60" as="geometry" />
        </mxCell>
        <mxCell id="DTB9U6Tat9dKRQT2tUvX-30" value="&lt;br&gt;kel1=(suhu[2]+273.15" style="rounded=1;whiteSpace=wrap;html=1;absoluteArcSize=1;arcSize=14;strokeWidth=2;labelPosition=center;verticalLabelPosition=middle;align=center;verticalAlign=middle;" vertex="1" parent="1">
          <mxGeometry x="30" y="480" width="130" height="60" as="geometry" />
        </mxCell>
        <mxCell id="DTB9U6Tat9dKRQT2tUvX-34" value="kel2=(suhu[3]+273.15" style="rounded=1;whiteSpace=wrap;html=1;absoluteArcSize=1;arcSize=14;strokeWidth=2;labelPosition=center;verticalLabelPosition=middle;align=center;verticalAlign=middle;" vertex="1" parent="1">
          <mxGeometry x="30" y="590" width="130" height="60" as="geometry" />
        </mxCell>
        <mxCell id="DTB9U6Tat9dKRQT2tUvX-37" value="rea1=(suhu[4]*4)/5" style="rounded=1;whiteSpace=wrap;html=1;absoluteArcSize=1;arcSize=14;strokeWidth=2;labelPosition=center;verticalLabelPosition=middle;align=center;verticalAlign=middle;" vertex="1" parent="1">
          <mxGeometry x="30" y="700" width="130" height="60" as="geometry" />
        </mxCell>
        <mxCell id="DTB9U6Tat9dKRQT2tUvX-38" value="rea2=(suhu[5]*4)/5" style="rounded=1;whiteSpace=wrap;html=1;absoluteArcSize=1;arcSize=14;strokeWidth=2;labelPosition=center;verticalLabelPosition=middle;align=center;verticalAlign=middle;" vertex="1" parent="1">
          <mxGeometry x="30" y="810" width="130" height="60" as="geometry" />
        </mxCell>
        <mxCell id="DTB9U6Tat9dKRQT2tUvX-40" value="" style="endArrow=classic;html=1;rounded=0;" edge="1" parent="1">
          <mxGeometry width="50" height="50" relative="1" as="geometry">
            <mxPoint x="94.55000000000001" y="870" as="sourcePoint" />
            <mxPoint x="95.05000000000001" y="920" as="targetPoint" />
          </mxGeometry>
        </mxCell>
        <mxCell id="DTB9U6Tat9dKRQT2tUvX-43" value="" style="endArrow=classic;html=1;rounded=0;" edge="1" parent="1">
          <mxGeometry width="50" height="50" relative="1" as="geometry">
            <mxPoint x="279.55" y="90" as="sourcePoint" />
            <mxPoint x="280.05" y="140" as="targetPoint" />
          </mxGeometry>
        </mxCell>
        <mxCell id="DTB9U6Tat9dKRQT2tUvX-44" value="jumlah=fah1+fah2+&lt;div&gt;kel1+kel2+rea1+rea2&lt;/div&gt;" style="rounded=1;whiteSpace=wrap;html=1;absoluteArcSize=1;arcSize=14;strokeWidth=2;labelPosition=center;verticalLabelPosition=middle;align=center;verticalAlign=middle;movable=1;resizable=1;rotatable=1;deletable=1;editable=1;locked=0;connectable=1;" vertex="1" parent="1">
          <mxGeometry x="215" y="140" width="130" height="60" as="geometry" />
        </mxCell>
        <mxCell id="DTB9U6Tat9dKRQT2tUvX-49" value="" style="endArrow=classic;html=1;rounded=0;" edge="1" parent="1">
          <mxGeometry width="50" height="50" relative="1" as="geometry">
            <mxPoint x="280" y="200" as="sourcePoint" />
            <mxPoint x="280.5" y="250" as="targetPoint" />
          </mxGeometry>
        </mxCell>
        <mxCell id="DTB9U6Tat9dKRQT2tUvX-50" value="ratarata= jumlah/6" style="rounded=1;whiteSpace=wrap;html=1;absoluteArcSize=1;arcSize=14;strokeWidth=2;labelPosition=center;verticalLabelPosition=middle;align=center;verticalAlign=middle;" vertex="1" parent="1">
          <mxGeometry x="215" y="250" width="130" height="60" as="geometry" />
        </mxCell>
        <mxCell id="DTB9U6Tat9dKRQT2tUvX-51" value="" style="endArrow=classic;html=1;rounded=0;" edge="1" parent="1">
          <mxGeometry width="50" height="50" relative="1" as="geometry">
            <mxPoint x="280" y="310" as="sourcePoint" />
            <mxPoint x="280.5" y="360" as="targetPoint" />
          </mxGeometry>
        </mxCell>
        <mxCell id="DTB9U6Tat9dKRQT2tUvX-52" value="nIM=65" style="rounded=1;whiteSpace=wrap;html=1;absoluteArcSize=1;arcSize=14;strokeWidth=2;labelPosition=center;verticalLabelPosition=middle;align=center;verticalAlign=middle;" vertex="1" parent="1">
          <mxGeometry x="215" y="360" width="130" height="60" as="geometry" />
        </mxCell>
        <mxCell id="DTB9U6Tat9dKRQT2tUvX-53" value="A" style="verticalLabelPosition=middle;verticalAlign=middle;html=1;shape=mxgraph.flowchart.on-page_reference;labelPosition=center;align=center;fontStyle=1" vertex="1" parent="1">
          <mxGeometry x="65" y="920" width="60" height="60" as="geometry" />
        </mxCell>
        <mxCell id="DTB9U6Tat9dKRQT2tUvX-73" value="" style="edgeStyle=orthogonalEdgeStyle;rounded=0;orthogonalLoop=1;jettySize=auto;html=1;" edge="1" parent="1">
          <mxGeometry relative="1" as="geometry">
            <mxPoint x="280" y="90" as="sourcePoint" />
            <mxPoint x="280" y="140" as="targetPoint" />
          </mxGeometry>
        </mxCell>
        <mxCell id="DTB9U6Tat9dKRQT2tUvX-54" value="A" style="verticalLabelPosition=middle;verticalAlign=middle;html=1;shape=mxgraph.flowchart.on-page_reference;labelPosition=center;align=center;fontStyle=1" vertex="1" parent="1">
          <mxGeometry x="250" y="30" width="60" height="60" as="geometry" />
        </mxCell>
        <mxCell id="DTB9U6Tat9dKRQT2tUvX-55" value="" style="endArrow=classic;html=1;rounded=0;" edge="1" parent="1">
          <mxGeometry width="50" height="50" relative="1" as="geometry">
            <mxPoint x="279.66" y="420" as="sourcePoint" />
            <mxPoint x="280.16" y="470" as="targetPoint" />
          </mxGeometry>
        </mxCell>
        <mxCell id="DTB9U6Tat9dKRQT2tUvX-58" value="bolean=nIM&amp;lt;ratarata" style="rounded=1;whiteSpace=wrap;html=1;absoluteArcSize=1;arcSize=14;strokeWidth=2;labelPosition=center;verticalLabelPosition=middle;align=center;verticalAlign=middle;" vertex="1" parent="1">
          <mxGeometry x="215" y="470" width="130" height="60" as="geometry" />
        </mxCell>
        <mxCell id="DTB9U6Tat9dKRQT2tUvX-59" value="&quot;Suhu ke-1=&quot;&amp;nbsp;&lt;div&gt;&amp;amp; suhu[0]&lt;/div&gt;" style="shape=parallelogram;html=1;strokeWidth=2;perimeter=parallelogramPerimeter;whiteSpace=wrap;rounded=1;arcSize=12;size=0.23;" vertex="1" parent="1">
          <mxGeometry x="200" y="580" width="160" height="50" as="geometry" />
        </mxCell>
        <mxCell id="DTB9U6Tat9dKRQT2tUvX-60" value="" style="endArrow=classic;html=1;rounded=0;" edge="1" parent="1">
          <mxGeometry width="50" height="50" relative="1" as="geometry">
            <mxPoint x="279.62" y="530" as="sourcePoint" />
            <mxPoint x="280.12" y="580" as="targetPoint" />
          </mxGeometry>
        </mxCell>
        <mxCell id="DTB9U6Tat9dKRQT2tUvX-63" value="" style="endArrow=classic;html=1;rounded=0;exitX=0.5;exitY=1;exitDx=0;exitDy=0;" edge="1" parent="1" source="DTB9U6Tat9dKRQT2tUvX-59">
          <mxGeometry width="50" height="50" relative="1" as="geometry">
            <mxPoint x="279.62" y="640" as="sourcePoint" />
            <mxPoint x="280.12" y="690" as="targetPoint" />
          </mxGeometry>
        </mxCell>
        <mxCell id="DTB9U6Tat9dKRQT2tUvX-65" value="&quot;Suhu ke-2=&quot;&amp;nbsp;&lt;div&gt;&amp;amp; suhu[1]&lt;/div&gt;" style="shape=parallelogram;html=1;strokeWidth=2;perimeter=parallelogramPerimeter;whiteSpace=wrap;rounded=1;arcSize=12;size=0.23;" vertex="1" parent="1">
          <mxGeometry x="200" y="690" width="160" height="50" as="geometry" />
        </mxCell>
        <mxCell id="DTB9U6Tat9dKRQT2tUvX-68" value="suhu= [27,33,46,&lt;div&gt;55,67,92]&lt;/div&gt;" style="shape=internalStorage;whiteSpace=wrap;html=1;dx=15;dy=15;rounded=1;arcSize=8;strokeWidth=2;" vertex="1" parent="1">
          <mxGeometry x="30" y="150" width="130" height="60" as="geometry" />
        </mxCell>
        <mxCell id="DTB9U6Tat9dKRQT2tUvX-70" value="" style="endArrow=classic;html=1;rounded=0;exitX=0.5;exitY=1;exitDx=0;exitDy=0;" edge="1" parent="1">
          <mxGeometry width="50" height="50" relative="1" as="geometry">
            <mxPoint x="279.62" y="740" as="sourcePoint" />
            <mxPoint x="279.74" y="800" as="targetPoint" />
          </mxGeometry>
        </mxCell>
        <mxCell id="DTB9U6Tat9dKRQT2tUvX-71" value="&quot;Suhu ke-3=&quot;&amp;nbsp;&lt;div&gt;&amp;amp; suhu[2]&lt;/div&gt;" style="shape=parallelogram;html=1;strokeWidth=2;perimeter=parallelogramPerimeter;whiteSpace=wrap;rounded=1;arcSize=12;size=0.23;" vertex="1" parent="1">
          <mxGeometry x="190" y="800" width="160" height="50" as="geometry" />
        </mxCell>
        <mxCell id="DTB9U6Tat9dKRQT2tUvX-72" value="" style="endArrow=classic;html=1;rounded=0;exitX=0.5;exitY=1;exitDx=0;exitDy=0;" edge="1" parent="1">
          <mxGeometry width="50" height="50" relative="1" as="geometry">
            <mxPoint x="279.62" y="850" as="sourcePoint" />
            <mxPoint x="279.74" y="910" as="targetPoint" />
          </mxGeometry>
        </mxCell>
        <mxCell id="DTB9U6Tat9dKRQT2tUvX-76" value="" style="edgeStyle=orthogonalEdgeStyle;rounded=0;orthogonalLoop=1;jettySize=auto;html=1;" edge="1" parent="1">
          <mxGeometry relative="1" as="geometry">
            <mxPoint x="499.89" y="100" as="sourcePoint" />
            <mxPoint x="499.89" y="150" as="targetPoint" />
          </mxGeometry>
        </mxCell>
        <mxCell id="DTB9U6Tat9dKRQT2tUvX-77" value="&quot;Suhu ke-4=&quot;&amp;nbsp;&lt;div&gt;&amp;amp; suhu[3]&lt;/div&gt;" style="shape=parallelogram;html=1;strokeWidth=2;perimeter=parallelogramPerimeter;whiteSpace=wrap;rounded=1;arcSize=12;size=0.23;" vertex="1" parent="1">
          <mxGeometry x="420" y="150" width="160" height="50" as="geometry" />
        </mxCell>
        <mxCell id="DTB9U6Tat9dKRQT2tUvX-78" value="" style="edgeStyle=orthogonalEdgeStyle;rounded=0;orthogonalLoop=1;jettySize=auto;html=1;" edge="1" parent="1">
          <mxGeometry relative="1" as="geometry">
            <mxPoint x="499.83000000000004" y="200" as="sourcePoint" />
            <mxPoint x="499.83000000000004" y="250" as="targetPoint" />
          </mxGeometry>
        </mxCell>
        <mxCell id="DTB9U6Tat9dKRQT2tUvX-82" value="" style="edgeStyle=orthogonalEdgeStyle;rounded=0;orthogonalLoop=1;jettySize=auto;html=1;" edge="1" parent="1">
          <mxGeometry relative="1" as="geometry">
            <mxPoint x="499.83000000000004" y="300" as="sourcePoint" />
            <mxPoint x="499.83000000000004" y="350" as="targetPoint" />
          </mxGeometry>
        </mxCell>
        <mxCell id="DTB9U6Tat9dKRQT2tUvX-83" value="&quot;Suhu ke-5=&quot;&amp;nbsp;&lt;div&gt;&amp;amp; suhu[4]&lt;/div&gt;" style="shape=parallelogram;html=1;strokeWidth=2;perimeter=parallelogramPerimeter;whiteSpace=wrap;rounded=1;arcSize=12;size=0.23;" vertex="1" parent="1">
          <mxGeometry x="410" y="250" width="160" height="50" as="geometry" />
        </mxCell>
        <mxCell id="DTB9U6Tat9dKRQT2tUvX-84" value="" style="edgeStyle=orthogonalEdgeStyle;rounded=0;orthogonalLoop=1;jettySize=auto;html=1;" edge="1" parent="1">
          <mxGeometry relative="1" as="geometry">
            <mxPoint x="499.71000000000004" y="400" as="sourcePoint" />
            <mxPoint x="499.71000000000004" y="450" as="targetPoint" />
          </mxGeometry>
        </mxCell>
        <mxCell id="DTB9U6Tat9dKRQT2tUvX-85" value="&quot;Suhu ke-6=&quot;&amp;nbsp;&lt;div&gt;&amp;amp; suhu[5]&lt;/div&gt;" style="shape=parallelogram;html=1;strokeWidth=2;perimeter=parallelogramPerimeter;whiteSpace=wrap;rounded=1;arcSize=12;size=0.23;" vertex="1" parent="1">
          <mxGeometry x="410" y="355" width="160" height="50" as="geometry" />
        </mxCell>
        <mxCell id="DTB9U6Tat9dKRQT2tUvX-86" value="" style="edgeStyle=orthogonalEdgeStyle;rounded=0;orthogonalLoop=1;jettySize=auto;html=1;" edge="1" parent="1">
          <mxGeometry relative="1" as="geometry">
            <mxPoint x="499.66999999999996" y="500" as="sourcePoint" />
            <mxPoint x="499.66999999999996" y="550" as="targetPoint" />
          </mxGeometry>
        </mxCell>
        <mxCell id="DTB9U6Tat9dKRQT2tUvX-87" value="&quot;Fahrenheit dari suhu&lt;div&gt;27 derajat celcius=&quot;&lt;/div&gt;&lt;div&gt;&amp;amp;fah1&lt;/div&gt;" style="shape=parallelogram;html=1;strokeWidth=2;perimeter=parallelogramPerimeter;whiteSpace=wrap;rounded=1;arcSize=12;size=0.23;" vertex="1" parent="1">
          <mxGeometry x="390" y="450" width="200" height="60" as="geometry" />
        </mxCell>
        <mxCell id="DTB9U6Tat9dKRQT2tUvX-88" value="" style="edgeStyle=orthogonalEdgeStyle;rounded=0;orthogonalLoop=1;jettySize=auto;html=1;" edge="1" parent="1">
          <mxGeometry relative="1" as="geometry">
            <mxPoint x="499.72" y="610" as="sourcePoint" />
            <mxPoint x="499.72" y="660" as="targetPoint" />
          </mxGeometry>
        </mxCell>
        <mxCell id="DTB9U6Tat9dKRQT2tUvX-89" value="&quot;Fahrenheit dari suhu&lt;div&gt;33 derajat celcius=&quot;&lt;/div&gt;&lt;div&gt;&amp;amp;fah2&lt;/div&gt;" style="shape=parallelogram;html=1;strokeWidth=2;perimeter=parallelogramPerimeter;whiteSpace=wrap;rounded=1;arcSize=12;size=0.23;" vertex="1" parent="1">
          <mxGeometry x="390" y="550" width="200" height="60" as="geometry" />
        </mxCell>
        <mxCell id="DTB9U6Tat9dKRQT2tUvX-90" value="" style="edgeStyle=orthogonalEdgeStyle;rounded=0;orthogonalLoop=1;jettySize=auto;html=1;" edge="1" parent="1">
          <mxGeometry relative="1" as="geometry">
            <mxPoint x="499.74" y="729" as="sourcePoint" />
            <mxPoint x="499.74" y="779" as="targetPoint" />
          </mxGeometry>
        </mxCell>
        <mxCell id="DTB9U6Tat9dKRQT2tUvX-91" value="&quot;Kelvin dari suhu 46 derajat&lt;div&gt;celcius=&quot;&amp;amp;kel1&lt;/div&gt;" style="shape=parallelogram;html=1;strokeWidth=2;perimeter=parallelogramPerimeter;whiteSpace=wrap;rounded=1;arcSize=12;size=0.23;" vertex="1" parent="1">
          <mxGeometry x="390" y="660" width="220" height="70" as="geometry" />
        </mxCell>
        <mxCell id="VThM4lEWPv3zi0PNbjW7-1" value="B" style="verticalLabelPosition=middle;verticalAlign=middle;html=1;shape=mxgraph.flowchart.on-page_reference;labelPosition=center;align=center;fontStyle=1" vertex="1" parent="1">
          <mxGeometry x="250" y="910" width="60" height="60" as="geometry" />
        </mxCell>
        <mxCell id="VThM4lEWPv3zi0PNbjW7-2" value="B" style="verticalLabelPosition=middle;verticalAlign=middle;html=1;shape=mxgraph.flowchart.on-page_reference;labelPosition=center;align=center;fontStyle=1" vertex="1" parent="1">
          <mxGeometry x="470" y="40" width="60" height="60" as="geometry" />
        </mxCell>
        <mxCell id="VThM4lEWPv3zi0PNbjW7-3" value="" style="edgeStyle=orthogonalEdgeStyle;rounded=0;orthogonalLoop=1;jettySize=auto;html=1;" edge="1" parent="1">
          <mxGeometry relative="1" as="geometry">
            <mxPoint x="499.71000000000004" y="840" as="sourcePoint" />
            <mxPoint x="499.71000000000004" y="890" as="targetPoint" />
          </mxGeometry>
        </mxCell>
        <mxCell id="VThM4lEWPv3zi0PNbjW7-5" value="C" style="verticalLabelPosition=middle;verticalAlign=middle;html=1;shape=mxgraph.flowchart.on-page_reference;labelPosition=center;align=center;fontStyle=1" vertex="1" parent="1">
          <mxGeometry x="470" y="890" width="60" height="60" as="geometry" />
        </mxCell>
        <mxCell id="VThM4lEWPv3zi0PNbjW7-12" value="C" style="verticalLabelPosition=middle;verticalAlign=middle;html=1;shape=mxgraph.flowchart.on-page_reference;labelPosition=center;align=center;fontStyle=1" vertex="1" parent="1">
          <mxGeometry x="690" y="40" width="60" height="60" as="geometry" />
        </mxCell>
        <mxCell id="VThM4lEWPv3zi0PNbjW7-17" value="" style="endArrow=classic;html=1;rounded=0;" edge="1" parent="1">
          <mxGeometry width="50" height="50" relative="1" as="geometry">
            <mxPoint x="719.8199999999999" y="100" as="sourcePoint" />
            <mxPoint x="719.8199999999999" y="130" as="targetPoint" />
          </mxGeometry>
        </mxCell>
        <mxCell id="VThM4lEWPv3zi0PNbjW7-21" value="" style="edgeStyle=orthogonalEdgeStyle;rounded=0;orthogonalLoop=1;jettySize=auto;html=1;" edge="1" parent="1">
          <mxGeometry relative="1" as="geometry">
            <mxPoint x="719.81" y="190" as="sourcePoint" />
            <mxPoint x="719.81" y="240" as="targetPoint" />
          </mxGeometry>
        </mxCell>
        <mxCell id="VThM4lEWPv3zi0PNbjW7-22" value="&lt;font&gt;&quot;Reamur dari suhu 66&lt;/font&gt;&lt;div&gt;&lt;font&gt;derajat celcius=&quot;&amp;amp; rea1&lt;/font&gt;&lt;/div&gt;" style="shape=parallelogram;html=1;strokeWidth=2;perimeter=parallelogramPerimeter;whiteSpace=wrap;rounded=1;arcSize=12;size=0.23;" vertex="1" parent="1">
          <mxGeometry x="600" y="130" width="220" height="60" as="geometry" />
        </mxCell>
        <mxCell id="VThM4lEWPv3zi0PNbjW7-23" value="" style="edgeStyle=orthogonalEdgeStyle;rounded=0;orthogonalLoop=1;jettySize=auto;html=1;" edge="1" parent="1">
          <mxGeometry relative="1" as="geometry">
            <mxPoint x="719.74" y="300" as="sourcePoint" />
            <mxPoint x="719.74" y="350" as="targetPoint" />
          </mxGeometry>
        </mxCell>
        <mxCell id="VThM4lEWPv3zi0PNbjW7-24" value="&lt;font&gt;&quot;Reamur dari suhu 92&lt;/font&gt;&lt;div&gt;&lt;font&gt;derajat celcius=&quot;&amp;amp; rea2&lt;/font&gt;&lt;/div&gt;" style="shape=parallelogram;html=1;strokeWidth=2;perimeter=parallelogramPerimeter;whiteSpace=wrap;rounded=1;arcSize=12;size=0.23;" vertex="1" parent="1">
          <mxGeometry x="600" y="240" width="220" height="60" as="geometry" />
        </mxCell>
        <mxCell id="VThM4lEWPv3zi0PNbjW7-25" value="" style="edgeStyle=orthogonalEdgeStyle;rounded=0;orthogonalLoop=1;jettySize=auto;html=1;" edge="1" parent="1">
          <mxGeometry relative="1" as="geometry">
            <mxPoint x="719.76" y="410" as="sourcePoint" />
            <mxPoint x="719.76" y="460" as="targetPoint" />
          </mxGeometry>
        </mxCell>
        <mxCell id="VThM4lEWPv3zi0PNbjW7-26" value="&quot;Jumlah suhu setelah&lt;div&gt;&lt;span style=&quot;background-color: transparent; color: light-dark(rgb(0, 0, 0), rgb(255, 255, 255));&quot;&gt;&amp;nbsp;di konversi=&quot; &amp;amp; jumlah&lt;/span&gt;&lt;/div&gt;" style="shape=parallelogram;html=1;strokeWidth=2;perimeter=parallelogramPerimeter;whiteSpace=wrap;rounded=1;arcSize=12;size=0.23;" vertex="1" parent="1">
          <mxGeometry x="600" y="350" width="220" height="60" as="geometry" />
        </mxCell>
        <mxCell id="VThM4lEWPv3zi0PNbjW7-27" value="" style="edgeStyle=orthogonalEdgeStyle;rounded=0;orthogonalLoop=1;jettySize=auto;html=1;" edge="1" parent="1">
          <mxGeometry relative="1" as="geometry">
            <mxPoint x="719.8" y="520" as="sourcePoint" />
            <mxPoint x="719.8" y="570" as="targetPoint" />
          </mxGeometry>
        </mxCell>
        <mxCell id="VThM4lEWPv3zi0PNbjW7-28" value="&quot;rata-rata=&quot; &amp;amp; ratarata" style="shape=parallelogram;html=1;strokeWidth=2;perimeter=parallelogramPerimeter;whiteSpace=wrap;rounded=1;arcSize=12;size=0.23;" vertex="1" parent="1">
          <mxGeometry x="600" y="460" width="220" height="60" as="geometry" />
        </mxCell>
        <mxCell id="VThM4lEWPv3zi0PNbjW7-30" value="" style="edgeStyle=orthogonalEdgeStyle;rounded=0;orthogonalLoop=1;jettySize=auto;html=1;" edge="1" parent="1">
          <mxGeometry relative="1" as="geometry">
            <mxPoint x="719.83" y="630" as="sourcePoint" />
            <mxPoint x="719.83" y="680" as="targetPoint" />
          </mxGeometry>
        </mxCell>
        <mxCell id="VThM4lEWPv3zi0PNbjW7-31" value="&quot;NIM Anda=&quot; &amp;amp; nIM" style="shape=parallelogram;html=1;strokeWidth=2;perimeter=parallelogramPerimeter;whiteSpace=wrap;rounded=1;arcSize=12;size=0.23;" vertex="1" parent="1">
          <mxGeometry x="630" y="570" width="180" height="60" as="geometry" />
        </mxCell>
        <mxCell id="VThM4lEWPv3zi0PNbjW7-33" value="&lt;font&gt;&quot;Kelvin dari suhu 55&amp;nbsp;&lt;/font&gt;&lt;div&gt;&lt;font&gt;derajat celcius=&quot;&amp;amp; kel2&lt;/font&gt;&lt;/div&gt;" style="shape=parallelogram;html=1;strokeWidth=2;perimeter=parallelogramPerimeter;whiteSpace=wrap;rounded=1;arcSize=12;size=0.23;" vertex="1" parent="1">
          <mxGeometry x="390" y="780" width="220" height="60" as="geometry" />
        </mxCell>
        <mxCell id="VThM4lEWPv3zi0PNbjW7-34" value="&quot;Bolean:&quot; &amp;amp; bolean" style="shape=parallelogram;html=1;strokeWidth=2;perimeter=parallelogramPerimeter;whiteSpace=wrap;rounded=1;arcSize=12;size=0.23;" vertex="1" parent="1">
          <mxGeometry x="645" y="680" width="150" height="50" as="geometry" />
        </mxCell>
        <mxCell id="VThM4lEWPv3zi0PNbjW7-35" value="" style="edgeStyle=orthogonalEdgeStyle;rounded=0;orthogonalLoop=1;jettySize=auto;html=1;" edge="1" parent="1">
          <mxGeometry relative="1" as="geometry">
            <mxPoint x="719.77" y="730" as="sourcePoint" />
            <mxPoint x="719.77" y="780" as="targetPoint" />
          </mxGeometry>
        </mxCell>
        <mxCell id="VThM4lEWPv3zi0PNbjW7-36" value="&quot;Berikut list suhu dari&amp;nbsp;&lt;div&gt;46 sampai 92 (celcius):&quot;&lt;/div&gt;&lt;div&gt;,suhu [-4:6])&lt;/div&gt;" style="shape=parallelogram;html=1;strokeWidth=2;perimeter=parallelogramPerimeter;whiteSpace=wrap;rounded=1;arcSize=12;size=0.23;" vertex="1" parent="1">
          <mxGeometry x="612.5" y="780" width="195" height="60" as="geometry" />
        </mxCell>
        <mxCell id="VThM4lEWPv3zi0PNbjW7-37" value="" style="edgeStyle=orthogonalEdgeStyle;rounded=0;orthogonalLoop=1;jettySize=auto;html=1;" edge="1" parent="1" target="VThM4lEWPv3zi0PNbjW7-40">
          <mxGeometry relative="1" as="geometry">
            <mxPoint x="719.83" y="840" as="sourcePoint" />
            <mxPoint x="719.83" y="890" as="targetPoint" />
          </mxGeometry>
        </mxCell>
        <mxCell id="VThM4lEWPv3zi0PNbjW7-40" value="End" style="strokeWidth=2;html=1;shape=mxgraph.flowchart.terminator;whiteSpace=wrap;" vertex="1" parent="1">
          <mxGeometry x="669.9999999999999" y="890" width="100" height="60" as="geometry" />
        </mxCell>
      </root>
    </mxGraphModel>
  </diagram>
  <diagram name="Copy of Page-1" id="rs0fv9n4oo-5_266p8g9">
    <mxGraphModel dx="1384" dy="1190" grid="1" gridSize="10" guides="1" tooltips="1" connect="1" arrows="1" fold="1" page="1" pageScale="1" pageWidth="850" pageHeight="1100" math="0" shadow="0">
      <root>
        <mxCell id="9WPdtainYziYKOhHnNL9-0" />
        <mxCell id="9WPdtainYziYKOhHnNL9-1" parent="9WPdtainYziYKOhHnNL9-0" />
        <mxCell id="9WPdtainYziYKOhHnNL9-2" value="" style="edgeStyle=orthogonalEdgeStyle;rounded=0;orthogonalLoop=1;jettySize=auto;html=1;" edge="1" parent="9WPdtainYziYKOhHnNL9-1">
          <mxGeometry relative="1" as="geometry">
            <mxPoint x="130" y="130" as="sourcePoint" />
            <mxPoint x="130" y="180" as="targetPoint" />
          </mxGeometry>
        </mxCell>
        <mxCell id="9WPdtainYziYKOhHnNL9-3" value="" style="endArrow=classic;html=1;rounded=0;" edge="1" parent="9WPdtainYziYKOhHnNL9-1">
          <mxGeometry width="50" height="50" relative="1" as="geometry">
            <mxPoint x="129.5" y="130" as="sourcePoint" />
            <mxPoint x="130" y="180" as="targetPoint" />
          </mxGeometry>
        </mxCell>
        <mxCell id="9WPdtainYziYKOhHnNL9-4" value="" style="endArrow=classic;html=1;rounded=0;" edge="1" parent="9WPdtainYziYKOhHnNL9-1">
          <mxGeometry width="50" height="50" relative="1" as="geometry">
            <mxPoint x="129.5" y="240" as="sourcePoint" />
            <mxPoint x="130" y="290" as="targetPoint" />
          </mxGeometry>
        </mxCell>
        <mxCell id="9WPdtainYziYKOhHnNL9-5" value="" style="endArrow=classic;html=1;rounded=0;" edge="1" parent="9WPdtainYziYKOhHnNL9-1">
          <mxGeometry width="50" height="50" relative="1" as="geometry">
            <mxPoint x="129.5" y="350" as="sourcePoint" />
            <mxPoint x="130" y="400" as="targetPoint" />
          </mxGeometry>
        </mxCell>
        <mxCell id="9WPdtainYziYKOhHnNL9-6" value="" style="endArrow=classic;html=1;rounded=0;" edge="1" parent="9WPdtainYziYKOhHnNL9-1">
          <mxGeometry width="50" height="50" relative="1" as="geometry">
            <mxPoint x="129.67000000000002" y="460" as="sourcePoint" />
            <mxPoint x="130.17000000000002" y="510" as="targetPoint" />
          </mxGeometry>
        </mxCell>
        <mxCell id="9WPdtainYziYKOhHnNL9-7" value="" style="endArrow=classic;html=1;rounded=0;" edge="1" parent="9WPdtainYziYKOhHnNL9-1">
          <mxGeometry width="50" height="50" relative="1" as="geometry">
            <mxPoint x="129.67000000000002" y="570" as="sourcePoint" />
            <mxPoint x="130.17000000000002" y="620" as="targetPoint" />
          </mxGeometry>
        </mxCell>
        <mxCell id="9WPdtainYziYKOhHnNL9-8" value="" style="endArrow=classic;html=1;rounded=0;" edge="1" parent="9WPdtainYziYKOhHnNL9-1">
          <mxGeometry width="50" height="50" relative="1" as="geometry">
            <mxPoint x="129.67000000000002" y="680" as="sourcePoint" />
            <mxPoint x="130.17000000000002" y="730" as="targetPoint" />
          </mxGeometry>
        </mxCell>
        <mxCell id="9WPdtainYziYKOhHnNL9-9" value="" style="endArrow=classic;html=1;rounded=0;" edge="1" parent="9WPdtainYziYKOhHnNL9-1">
          <mxGeometry width="50" height="50" relative="1" as="geometry">
            <mxPoint x="130" y="790" as="sourcePoint" />
            <mxPoint x="130.5" y="840" as="targetPoint" />
          </mxGeometry>
        </mxCell>
        <mxCell id="9WPdtainYziYKOhHnNL9-10" value="&#xa;&lt;span style=&quot;color: rgb(0, 0, 0); font-family: Helvetica; font-size: 12px; font-style: normal; font-variant-ligatures: normal; font-variant-caps: normal; font-weight: 400; letter-spacing: normal; orphans: 2; text-align: center; text-indent: 0px; text-transform: none; widows: 2; word-spacing: 0px; -webkit-text-stroke-width: 0px; white-space: normal; background-color: rgb(236, 236, 236); text-decoration-thickness: initial; text-decoration-style: initial; text-decoration-color: initial; display: inline !important; float: none;&quot;&gt;fah1= (suhu[0]*9)5+32&lt;/span&gt;&#xa;&#xa;" style="rounded=1;whiteSpace=wrap;html=1;absoluteArcSize=1;arcSize=14;strokeWidth=2;" vertex="1" parent="9WPdtainYziYKOhHnNL9-1">
          <mxGeometry x="65" y="290" width="130" height="60" as="geometry" />
        </mxCell>
        <mxCell id="9WPdtainYziYKOhHnNL9-11" value="start" style="strokeWidth=2;html=1;shape=mxgraph.flowchart.terminator;whiteSpace=wrap;" vertex="1" parent="9WPdtainYziYKOhHnNL9-1">
          <mxGeometry x="80" y="70" width="100" height="60" as="geometry" />
        </mxCell>
        <mxCell id="9WPdtainYziYKOhHnNL9-12" value="fah2= (suhu[1]*9)5=32" style="rounded=1;whiteSpace=wrap;html=1;absoluteArcSize=1;arcSize=14;strokeWidth=2;" vertex="1" parent="9WPdtainYziYKOhHnNL9-1">
          <mxGeometry x="65" y="400" width="130" height="60" as="geometry" />
        </mxCell>
        <mxCell id="9WPdtainYziYKOhHnNL9-13" value="&lt;br&gt;kel1=(suhu[2]+273.15" style="rounded=1;whiteSpace=wrap;html=1;absoluteArcSize=1;arcSize=14;strokeWidth=2;labelPosition=center;verticalLabelPosition=middle;align=center;verticalAlign=middle;" vertex="1" parent="9WPdtainYziYKOhHnNL9-1">
          <mxGeometry x="65" y="510" width="130" height="60" as="geometry" />
        </mxCell>
        <mxCell id="9WPdtainYziYKOhHnNL9-14" value="kel2=(suhu[3]+273.15" style="rounded=1;whiteSpace=wrap;html=1;absoluteArcSize=1;arcSize=14;strokeWidth=2;labelPosition=center;verticalLabelPosition=middle;align=center;verticalAlign=middle;" vertex="1" parent="9WPdtainYziYKOhHnNL9-1">
          <mxGeometry x="65" y="620" width="130" height="60" as="geometry" />
        </mxCell>
        <mxCell id="9WPdtainYziYKOhHnNL9-15" value="rea1=(suhu[4]*4)/5" style="rounded=1;whiteSpace=wrap;html=1;absoluteArcSize=1;arcSize=14;strokeWidth=2;labelPosition=center;verticalLabelPosition=middle;align=center;verticalAlign=middle;" vertex="1" parent="9WPdtainYziYKOhHnNL9-1">
          <mxGeometry x="65" y="730" width="130" height="60" as="geometry" />
        </mxCell>
        <mxCell id="9WPdtainYziYKOhHnNL9-16" value="rea2=(suhu[5]*4)/5" style="rounded=1;whiteSpace=wrap;html=1;absoluteArcSize=1;arcSize=14;strokeWidth=2;labelPosition=center;verticalLabelPosition=middle;align=center;verticalAlign=middle;" vertex="1" parent="9WPdtainYziYKOhHnNL9-1">
          <mxGeometry x="65" y="840" width="130" height="60" as="geometry" />
        </mxCell>
        <mxCell id="9WPdtainYziYKOhHnNL9-17" value="" style="endArrow=classic;html=1;rounded=0;" edge="1" parent="9WPdtainYziYKOhHnNL9-1">
          <mxGeometry width="50" height="50" relative="1" as="geometry">
            <mxPoint x="129.55" y="900" as="sourcePoint" />
            <mxPoint x="130.05" y="950" as="targetPoint" />
          </mxGeometry>
        </mxCell>
        <mxCell id="9WPdtainYziYKOhHnNL9-18" value="" style="endArrow=classic;html=1;rounded=0;" edge="1" parent="9WPdtainYziYKOhHnNL9-1">
          <mxGeometry width="50" height="50" relative="1" as="geometry">
            <mxPoint x="329.55" y="130" as="sourcePoint" />
            <mxPoint x="330.05" y="180" as="targetPoint" />
          </mxGeometry>
        </mxCell>
        <mxCell id="9WPdtainYziYKOhHnNL9-19" value="jumlah=fah1+fah2+&lt;div&gt;kel1+kel2+rea1+rea2&lt;/div&gt;" style="rounded=1;whiteSpace=wrap;html=1;absoluteArcSize=1;arcSize=14;strokeWidth=2;labelPosition=center;verticalLabelPosition=middle;align=center;verticalAlign=middle;" vertex="1" parent="9WPdtainYziYKOhHnNL9-1">
          <mxGeometry x="265" y="180" width="130" height="60" as="geometry" />
        </mxCell>
        <mxCell id="9WPdtainYziYKOhHnNL9-20" value="" style="endArrow=classic;html=1;rounded=0;" edge="1" parent="9WPdtainYziYKOhHnNL9-1">
          <mxGeometry width="50" height="50" relative="1" as="geometry">
            <mxPoint x="330" y="240" as="sourcePoint" />
            <mxPoint x="330.5" y="290" as="targetPoint" />
          </mxGeometry>
        </mxCell>
        <mxCell id="9WPdtainYziYKOhHnNL9-21" value="ratarata= jumlah/6" style="rounded=1;whiteSpace=wrap;html=1;absoluteArcSize=1;arcSize=14;strokeWidth=2;labelPosition=center;verticalLabelPosition=middle;align=center;verticalAlign=middle;" vertex="1" parent="9WPdtainYziYKOhHnNL9-1">
          <mxGeometry x="265" y="290" width="130" height="60" as="geometry" />
        </mxCell>
        <mxCell id="9WPdtainYziYKOhHnNL9-22" value="" style="endArrow=classic;html=1;rounded=0;" edge="1" parent="9WPdtainYziYKOhHnNL9-1">
          <mxGeometry width="50" height="50" relative="1" as="geometry">
            <mxPoint x="330" y="350" as="sourcePoint" />
            <mxPoint x="330.5" y="400" as="targetPoint" />
          </mxGeometry>
        </mxCell>
        <mxCell id="9WPdtainYziYKOhHnNL9-23" value="nIM=65" style="rounded=1;whiteSpace=wrap;html=1;absoluteArcSize=1;arcSize=14;strokeWidth=2;labelPosition=center;verticalLabelPosition=middle;align=center;verticalAlign=middle;" vertex="1" parent="9WPdtainYziYKOhHnNL9-1">
          <mxGeometry x="265" y="400" width="130" height="60" as="geometry" />
        </mxCell>
        <mxCell id="9WPdtainYziYKOhHnNL9-24" value="A" style="verticalLabelPosition=middle;verticalAlign=middle;html=1;shape=mxgraph.flowchart.on-page_reference;labelPosition=center;align=center;fontStyle=1" vertex="1" parent="9WPdtainYziYKOhHnNL9-1">
          <mxGeometry x="100" y="950" width="60" height="60" as="geometry" />
        </mxCell>
        <mxCell id="9WPdtainYziYKOhHnNL9-25" value="" style="edgeStyle=orthogonalEdgeStyle;rounded=0;orthogonalLoop=1;jettySize=auto;html=1;" edge="1" parent="9WPdtainYziYKOhHnNL9-1" source="9WPdtainYziYKOhHnNL9-26" target="9WPdtainYziYKOhHnNL9-19">
          <mxGeometry relative="1" as="geometry" />
        </mxCell>
        <mxCell id="9WPdtainYziYKOhHnNL9-26" value="A" style="verticalLabelPosition=middle;verticalAlign=middle;html=1;shape=mxgraph.flowchart.on-page_reference;labelPosition=center;align=center;fontStyle=1" vertex="1" parent="9WPdtainYziYKOhHnNL9-1">
          <mxGeometry x="300" y="70" width="60" height="60" as="geometry" />
        </mxCell>
        <mxCell id="9WPdtainYziYKOhHnNL9-27" value="" style="endArrow=classic;html=1;rounded=0;" edge="1" parent="9WPdtainYziYKOhHnNL9-1">
          <mxGeometry width="50" height="50" relative="1" as="geometry">
            <mxPoint x="329.66" y="460" as="sourcePoint" />
            <mxPoint x="330.16" y="510" as="targetPoint" />
          </mxGeometry>
        </mxCell>
        <mxCell id="9WPdtainYziYKOhHnNL9-28" value="bolean=nIM&amp;lt;ratarata" style="rounded=1;whiteSpace=wrap;html=1;absoluteArcSize=1;arcSize=14;strokeWidth=2;labelPosition=center;verticalLabelPosition=middle;align=center;verticalAlign=middle;" vertex="1" parent="9WPdtainYziYKOhHnNL9-1">
          <mxGeometry x="265" y="510" width="130" height="60" as="geometry" />
        </mxCell>
        <mxCell id="9WPdtainYziYKOhHnNL9-29" value="&quot;Suhu ke-1=&quot;&amp;nbsp;&lt;div&gt;&amp;amp; suhu[0]&lt;/div&gt;" style="shape=parallelogram;html=1;strokeWidth=2;perimeter=parallelogramPerimeter;whiteSpace=wrap;rounded=1;arcSize=12;size=0.23;" vertex="1" parent="9WPdtainYziYKOhHnNL9-1">
          <mxGeometry x="250" y="620" width="160" height="50" as="geometry" />
        </mxCell>
        <mxCell id="9WPdtainYziYKOhHnNL9-30" value="" style="endArrow=classic;html=1;rounded=0;" edge="1" parent="9WPdtainYziYKOhHnNL9-1">
          <mxGeometry width="50" height="50" relative="1" as="geometry">
            <mxPoint x="329.62" y="570" as="sourcePoint" />
            <mxPoint x="330.12" y="620" as="targetPoint" />
          </mxGeometry>
        </mxCell>
        <mxCell id="9WPdtainYziYKOhHnNL9-31" value="" style="endArrow=classic;html=1;rounded=0;exitX=0.5;exitY=1;exitDx=0;exitDy=0;" edge="1" parent="9WPdtainYziYKOhHnNL9-1" source="9WPdtainYziYKOhHnNL9-29">
          <mxGeometry width="50" height="50" relative="1" as="geometry">
            <mxPoint x="329.62" y="680" as="sourcePoint" />
            <mxPoint x="330.12" y="730" as="targetPoint" />
          </mxGeometry>
        </mxCell>
        <mxCell id="9WPdtainYziYKOhHnNL9-32" value="&quot;Suhu ke-2=&quot;&amp;nbsp;&lt;div&gt;&amp;amp; suhu[1]&lt;/div&gt;" style="shape=parallelogram;html=1;strokeWidth=2;perimeter=parallelogramPerimeter;whiteSpace=wrap;rounded=1;arcSize=12;size=0.23;" vertex="1" parent="9WPdtainYziYKOhHnNL9-1">
          <mxGeometry x="250" y="730" width="160" height="50" as="geometry" />
        </mxCell>
        <mxCell id="9WPdtainYziYKOhHnNL9-33" value="suhu= [27,33,46,&lt;div&gt;55,67,92]&lt;/div&gt;" style="shape=internalStorage;whiteSpace=wrap;html=1;dx=15;dy=15;rounded=1;arcSize=8;strokeWidth=2;" vertex="1" parent="9WPdtainYziYKOhHnNL9-1">
          <mxGeometry x="65" y="180" width="130" height="60" as="geometry" />
        </mxCell>
        <mxCell id="9WPdtainYziYKOhHnNL9-34" value="" style="endArrow=classic;html=1;rounded=0;exitX=0.5;exitY=1;exitDx=0;exitDy=0;" edge="1" parent="9WPdtainYziYKOhHnNL9-1">
          <mxGeometry width="50" height="50" relative="1" as="geometry">
            <mxPoint x="329.62" y="780" as="sourcePoint" />
            <mxPoint x="329.74" y="840" as="targetPoint" />
          </mxGeometry>
        </mxCell>
        <mxCell id="9WPdtainYziYKOhHnNL9-35" value="&quot;Suhu ke-3=&quot;&amp;nbsp;&lt;div&gt;&amp;amp; suhu[2]&lt;/div&gt;" style="shape=parallelogram;html=1;strokeWidth=2;perimeter=parallelogramPerimeter;whiteSpace=wrap;rounded=1;arcSize=12;size=0.23;" vertex="1" parent="9WPdtainYziYKOhHnNL9-1">
          <mxGeometry x="240" y="840" width="160" height="50" as="geometry" />
        </mxCell>
        <mxCell id="9WPdtainYziYKOhHnNL9-36" value="" style="endArrow=classic;html=1;rounded=0;exitX=0.5;exitY=1;exitDx=0;exitDy=0;" edge="1" parent="9WPdtainYziYKOhHnNL9-1">
          <mxGeometry width="50" height="50" relative="1" as="geometry">
            <mxPoint x="329.62" y="890" as="sourcePoint" />
            <mxPoint x="329.74" y="950" as="targetPoint" />
          </mxGeometry>
        </mxCell>
        <mxCell id="9WPdtainYziYKOhHnNL9-37" value="" style="edgeStyle=orthogonalEdgeStyle;rounded=0;orthogonalLoop=1;jettySize=auto;html=1;" edge="1" parent="9WPdtainYziYKOhHnNL9-1">
          <mxGeometry relative="1" as="geometry">
            <mxPoint x="519.89" y="130" as="sourcePoint" />
            <mxPoint x="519.89" y="180" as="targetPoint" />
          </mxGeometry>
        </mxCell>
        <mxCell id="9WPdtainYziYKOhHnNL9-38" value="&quot;Suhu ke-4=&quot;&amp;nbsp;&lt;div&gt;&amp;amp; suhu[3]&lt;/div&gt;" style="shape=parallelogram;html=1;strokeWidth=2;perimeter=parallelogramPerimeter;whiteSpace=wrap;rounded=1;arcSize=12;size=0.23;" vertex="1" parent="9WPdtainYziYKOhHnNL9-1">
          <mxGeometry x="440" y="180" width="160" height="50" as="geometry" />
        </mxCell>
        <mxCell id="9WPdtainYziYKOhHnNL9-39" value="" style="edgeStyle=orthogonalEdgeStyle;rounded=0;orthogonalLoop=1;jettySize=auto;html=1;" edge="1" parent="9WPdtainYziYKOhHnNL9-1">
          <mxGeometry relative="1" as="geometry">
            <mxPoint x="519.83" y="230" as="sourcePoint" />
            <mxPoint x="519.83" y="280" as="targetPoint" />
          </mxGeometry>
        </mxCell>
        <mxCell id="9WPdtainYziYKOhHnNL9-40" value="&quot;Suhu ke-4=&quot;&amp;nbsp;&lt;div&gt;&amp;amp; suhu[3]&lt;/div&gt;" style="shape=parallelogram;html=1;strokeWidth=2;perimeter=parallelogramPerimeter;whiteSpace=wrap;rounded=1;arcSize=12;size=0.23;" vertex="1" parent="9WPdtainYziYKOhHnNL9-1">
          <mxGeometry x="440" y="280" width="160" height="50" as="geometry" />
        </mxCell>
        <mxCell id="9WPdtainYziYKOhHnNL9-41" value="" style="edgeStyle=orthogonalEdgeStyle;rounded=0;orthogonalLoop=1;jettySize=auto;html=1;" edge="1" parent="9WPdtainYziYKOhHnNL9-1">
          <mxGeometry relative="1" as="geometry">
            <mxPoint x="519.83" y="330" as="sourcePoint" />
            <mxPoint x="519.83" y="380" as="targetPoint" />
          </mxGeometry>
        </mxCell>
        <mxCell id="9WPdtainYziYKOhHnNL9-42" value="&quot;Suhu ke-5=&quot;&amp;nbsp;&lt;div&gt;&amp;amp; suhu[4]&lt;/div&gt;" style="shape=parallelogram;html=1;strokeWidth=2;perimeter=parallelogramPerimeter;whiteSpace=wrap;rounded=1;arcSize=12;size=0.23;" vertex="1" parent="9WPdtainYziYKOhHnNL9-1">
          <mxGeometry x="440" y="380" width="160" height="50" as="geometry" />
        </mxCell>
        <mxCell id="9WPdtainYziYKOhHnNL9-43" value="" style="edgeStyle=orthogonalEdgeStyle;rounded=0;orthogonalLoop=1;jettySize=auto;html=1;" edge="1" parent="9WPdtainYziYKOhHnNL9-1">
          <mxGeometry relative="1" as="geometry">
            <mxPoint x="519.71" y="430" as="sourcePoint" />
            <mxPoint x="519.71" y="480" as="targetPoint" />
          </mxGeometry>
        </mxCell>
        <mxCell id="9WPdtainYziYKOhHnNL9-44" value="&quot;Suhu ke-6=&quot;&amp;nbsp;&lt;div&gt;&amp;amp; suhu[5]&lt;/div&gt;" style="shape=parallelogram;html=1;strokeWidth=2;perimeter=parallelogramPerimeter;whiteSpace=wrap;rounded=1;arcSize=12;size=0.23;" vertex="1" parent="9WPdtainYziYKOhHnNL9-1">
          <mxGeometry x="440" y="480" width="160" height="50" as="geometry" />
        </mxCell>
        <mxCell id="9WPdtainYziYKOhHnNL9-45" value="" style="edgeStyle=orthogonalEdgeStyle;rounded=0;orthogonalLoop=1;jettySize=auto;html=1;" edge="1" parent="9WPdtainYziYKOhHnNL9-1">
          <mxGeometry relative="1" as="geometry">
            <mxPoint x="519.67" y="530" as="sourcePoint" />
            <mxPoint x="519.67" y="580" as="targetPoint" />
          </mxGeometry>
        </mxCell>
        <mxCell id="9WPdtainYziYKOhHnNL9-46" value="&quot;Fahrenheit dari suhu&lt;div&gt;27 derajat celcius=&quot;&lt;/div&gt;&lt;div&gt;&amp;amp;fah1&lt;/div&gt;" style="shape=parallelogram;html=1;strokeWidth=2;perimeter=parallelogramPerimeter;whiteSpace=wrap;rounded=1;arcSize=12;size=0.23;" vertex="1" parent="9WPdtainYziYKOhHnNL9-1">
          <mxGeometry x="420" y="580" width="200" height="60" as="geometry" />
        </mxCell>
        <mxCell id="9WPdtainYziYKOhHnNL9-47" value="" style="edgeStyle=orthogonalEdgeStyle;rounded=0;orthogonalLoop=1;jettySize=auto;html=1;" edge="1" parent="9WPdtainYziYKOhHnNL9-1">
          <mxGeometry relative="1" as="geometry">
            <mxPoint x="519.72" y="640" as="sourcePoint" />
            <mxPoint x="519.72" y="690" as="targetPoint" />
          </mxGeometry>
        </mxCell>
        <mxCell id="9WPdtainYziYKOhHnNL9-48" value="&quot;Fahrenheit dari suhu&lt;div&gt;33 derajat celcius=&quot;&lt;/div&gt;&lt;div&gt;&amp;amp;fah2&lt;/div&gt;" style="shape=parallelogram;html=1;strokeWidth=2;perimeter=parallelogramPerimeter;whiteSpace=wrap;rounded=1;arcSize=12;size=0.23;" vertex="1" parent="9WPdtainYziYKOhHnNL9-1">
          <mxGeometry x="420" y="690" width="200" height="60" as="geometry" />
        </mxCell>
        <mxCell id="9WPdtainYziYKOhHnNL9-49" value="" style="edgeStyle=orthogonalEdgeStyle;rounded=0;orthogonalLoop=1;jettySize=auto;html=1;" edge="1" parent="9WPdtainYziYKOhHnNL9-1">
          <mxGeometry relative="1" as="geometry">
            <mxPoint x="519.74" y="750" as="sourcePoint" />
            <mxPoint x="519.74" y="800" as="targetPoint" />
          </mxGeometry>
        </mxCell>
        <mxCell id="9WPdtainYziYKOhHnNL9-50" value="&quot;Kelvin dari suhu 46 derajat&lt;div&gt;celcius=&quot;&amp;amp;kel1&lt;/div&gt;" style="shape=parallelogram;html=1;strokeWidth=2;perimeter=parallelogramPerimeter;whiteSpace=wrap;rounded=1;arcSize=12;size=0.23;" vertex="1" parent="9WPdtainYziYKOhHnNL9-1">
          <mxGeometry x="405" y="800" width="230" height="60" as="geometry" />
        </mxCell>
        <mxCell id="9WPdtainYziYKOhHnNL9-51" value="1" style="verticalLabelPosition=middle;verticalAlign=middle;html=1;shape=offPageConnector;rounded=0;size=0.5;labelPosition=center;align=center;fontStyle=1" vertex="1" parent="9WPdtainYziYKOhHnNL9-1">
          <mxGeometry x="300" y="950" width="60" height="60" as="geometry" />
        </mxCell>
      </root>
    </mxGraphModel>
  </diagram>
</mxfile>
